<svg id="Icon" xmlns="http://www.w3.org/2000/svg" viewBox="0 0 377.52 165.31"><defs><style>.cls-1{font-size:100px;font-family:Raleway-Light, Raleway;font-weight:300;letter-spacing:0.01em;}.cls-2{letter-spacing:0em;}.cls-3{fill:#6a4d84;}.cls-4{opacity:0.81;}.cls-5{fill:#4b3254;}.cls-11,.cls-6{fill:none;stroke-miterlimit:10;}.cls-6{stroke:#4b3254;}.cls-7{fill:#556e4f;}.cls-8{fill:#3b4d37;}.cls-9{fill:#805737;}.cls-10{fill:#573b25;}.cls-11{stroke:#3b4d37;}</style></defs><text class="cls-1" transform="translate(112.22 135.21)">Scri<tspan class="cls-2" x="171.8" y="0">p</tspan><tspan x="232.8" y="0">t</tspan></text><path class="cls-3" d="M166.9,176.72c-11.48,1-17.21,1.53-22.14,3.8-6.7,3.09-10.45,7.53-16.16,14.31a78.74,78.74,0,0,0-12.27,19.73A74.24,74.24,0,0,0,110.71,237a72.26,72.26,0,0,0,3.23,28.12,76.37,76.37,0,0,0,14.6,25.59c6.86,8,13.46,12.36,18.76,15.87,7.55,5,11,5.83,12.48,6.14,7.68,1.54,14.09-.93,17.89-2.46,10.77-4.32,17-11.73,22.1-17.91a78.07,78.07,0,0,0-.15-101.89c-9.67-11.79-16.57-13.61-18.33-14C178.21,175.72,174.44,176.05,166.9,176.72Z" transform="translate(-110.46 -147.89)"/><g class="cls-4"><path class="cls-5" d="M217.08,226.11c-3.76-18.66-21-42.83-21.48-36.13,0,.38-.06.74-.09,1.09a93.62,93.62,0,0,1,10.28,25.34c4.06,16.52,3.93,31.39-.43,33.15-16.34,6.6-12.77,28.07-16.89,33.07-5.08,6.18-11.32,13.59-22.1,17.92-3.79,1.52-10.21,4-17.89,2.45-1.45-.29-7.84-6.57-13.21-5.42a98.83,98.83,0,0,0,12,9c7.55,5,11,5.83,12.48,6.14,7.68,1.54,14.09-.93,17.89-2.46,10.77-4.32,17-11.73,22.1-17.91a77.27,77.27,0,0,0,17.31-66.23Z" transform="translate(-110.46 -147.89)"/></g><path class="cls-6" d="M159.42,185a120.44,120.44,0,0,0-13.12,16,117.75,117.75,0,0,0-12.76,24.15c-3.82,10.05-8.24,21.67-6.89,36.73a65.93,65.93,0,0,0,7.81,25.49" transform="translate(-110.46 -147.89)"/><path class="cls-7" d="M139.36,148.35v0h0l0,0a26.9,26.9,0,0,0,6.26,26.39c9.77,10.15,23.28,7.88,24.34,7.68h0c.31-1,4-14.22-5-25A26.88,26.88,0,0,0,139.36,148.35Z" transform="translate(-110.46 -147.89)"/><path class="cls-8" d="M170.41,180.5a27.65,27.65,0,0,1-7.35-.17c-7.49-1.19-12.37-5.2-15.44-7.72-5.28-4.34-5.48-14.39-9.39-15a26.71,26.71,0,0,0,7.37,17.17c9.77,10.15,23.28,7.88,24.34,7.68h0C170,182.23,170.2,181.54,170.41,180.5Z" transform="translate(-110.46 -147.89)"/><path class="cls-9" d="M182,157.24c.24.77,1,.72,1.26,1.49l-4.52,4.65a.83.83,0,0,0-.2.32l-6,18.09a.81.81,0,0,1-.65.56l-2.95.49a.82.82,0,0,1-.93-1q1.58-5.42,3.14-10.83l3.48-12.08a3.31,3.31,0,0,1,3.81-2.34Z" transform="translate(-110.46 -147.89)"/><path class="cls-10" d="M181.69,157.7l-2.1,3c-.64.66-1.28,1.33-1.93,2-2.07,6.25-3.57,13-5.64,19.22a17.8,17.8,0,0,0-2.81.88h.13l2.43-.41a1.07,1.07,0,0,0,.84-.72l5.92-17.9a1.33,1.33,0,0,1,.25-.41l4.49-4.61C182.55,157.52,182.09,158.24,181.69,157.7Z" transform="translate(-110.46 -147.89)"/><path class="cls-11" d="M146.45,151.73A37.9,37.9,0,0,1,164.55,177" transform="translate(-110.46 -147.89)"/></svg>